<svg width="36" height="36" viewBox="0 0 36 36" fill="none" xmlns="http://www.w3.org/2000/svg">
<path d="M22.9645 3.1232C25.4026 3.77753 27.6257 5.06163 29.4107 6.84663C31.1957 8.63163 32.4798 10.8547 33.1341 13.2928M21.4732 8.67517C22.9396 9.06461 24.2769 9.83477 25.3497 10.9076C26.4226 11.9804 27.1927 13.3178 27.5822 14.7841M10.9442 18.3597C12.4233 21.4142 14.8932 23.8778 17.9515 25.3491C18.1771 25.4559 18.4267 25.5021 18.6755 25.4832C18.9244 25.4643 19.1641 25.3809 19.371 25.2413L23.8629 22.2407C24.0613 22.1061 24.2906 22.0239 24.5294 22.0019C24.7682 21.98 25.0087 22.0188 25.2284 22.1149L33.6372 25.7264C33.9246 25.846 34.1647 26.0568 34.3205 26.3262C34.4764 26.5957 34.5393 26.9089 34.4997 27.2177C34.2331 29.2979 33.2178 31.2097 31.6436 32.5953C30.0694 33.981 28.0443 34.7456 25.9471 34.7461C19.4663 34.7461 13.2509 32.1716 8.66833 27.589C4.08572 23.0064 1.51123 16.791 1.51123 10.3102C1.5117 8.21304 2.27631 6.18789 3.66199 4.61371C5.04767 3.03952 6.95946 2.02418 9.03964 1.75766C9.34839 1.718 9.66162 1.78094 9.93109 1.93678C10.2006 2.09262 10.4113 2.33272 10.5309 2.62011L14.1424 11.0469C14.2363 11.2631 14.2756 11.4991 14.2568 11.7341C14.238 11.9691 14.1617 12.1959 14.0346 12.3945L11.034 16.9582C10.9004 17.1646 10.822 17.4019 10.8063 17.6472C10.7906 17.8926 10.8381 18.1379 10.9442 18.3597Z" stroke="#0152A8" stroke-width="2" stroke-linecap="round" stroke-linejoin="round"/>
</svg>
