<svg width="54" height="55" viewBox="0 0 54 43" fill="none" xmlns="http://www.w3.org/2000/svg">
<path d="M2.30805 10.3876L18.62 5.63907H18.6399L37.2764 0.195128C37.7511 0.054226 38.2523 0.0275759 38.7391 0.117354C39.226 0.207133 39.6847 0.410794 40.0779 0.711707C40.4762 1.00452 40.7992 1.38781 41.0203 1.82998C41.2414 2.27214 41.3542 2.76053 41.3495 3.25486V30.7925C41.3495 31.6322 41.0173 32.4377 40.4254 33.0333C39.8335 33.6289 39.0301 33.9662 38.1904 33.9714C37.8818 33.9722 37.5745 33.9321 37.2764 33.8522L20.6863 29.0043V31.3289C20.6863 32.172 20.3514 32.9806 19.7552 33.5768C19.1591 34.1729 18.3505 34.5079 17.5074 34.5079H11.1495C10.3064 34.5079 9.49781 34.1729 8.90164 33.5768C8.30547 32.9806 7.97055 32.172 7.97055 31.3289V25.3088L2.30805 23.6597C1.64884 23.4632 1.07055 23.0594 0.658958 22.5082C0.247372 21.957 0.0244195 21.2879 0.0231857 20.6V13.4474C0.0244195 12.7595 0.247372 12.0903 0.658958 11.5391C1.07055 10.988 1.64884 10.5842 2.30805 10.3876ZM11.1495 31.3289H17.5074V28.0904L11.1495 26.2227V31.3289ZM3.20213 20.6L10.0369 22.5868L17.5074 24.7723V9.27499L3.20213 13.4474V20.6Z" fill="#0152A8"/>
</svg>
