<svg width="28" height="36" viewBox="0 0 28 36" fill="none" xmlns="http://www.w3.org/2000/svg">
<path d="M3.33691 34.7461H26.9083" stroke="#0152A8" stroke-width="2" stroke-linecap="round" stroke-linejoin="round"/>
<path d="M14.3364 19.0316C16.94 19.0316 19.0506 16.9209 19.0506 14.3173C19.0506 11.7137 16.94 9.60303 14.3364 9.60303C11.7327 9.60303 9.62207 11.7137 9.62207 14.3173C9.62207 16.9209 11.7327 19.0316 14.3364 19.0316Z" stroke="#0152A8" stroke-width="2" stroke-linecap="round" stroke-linejoin="round"/>
<path d="M26.9075 14.4384C26.9075 25.8615 14.3361 34.7461 14.3361 34.7461C14.3361 34.7461 1.76465 25.8615 1.76465 14.4384C1.76465 11.0722 3.08913 7.84385 5.44673 5.46358C7.80433 3.08332 11.0019 1.74609 14.3361 1.74609C17.6702 1.74609 20.8678 3.08332 23.2254 5.46358C25.583 7.84385 26.9075 11.0722 26.9075 14.4384V14.4384Z" stroke="#0152A8" stroke-width="2" stroke-linecap="round" stroke-linejoin="round"/>
</svg>
