<svg width="36" height="36" viewBox="0 0 36 36" fill="none" xmlns="http://www.w3.org/2000/svg">
<path d="M24.5601 18.2425C24.5601 22.0394 21.482 25.1175 17.6851 25.1175C13.8881 25.1175 10.8101 22.0394 10.8101 18.2425C10.8101 14.4455 13.8881 11.3675 17.6851 11.3675C21.482 11.3675 24.5601 14.4455 24.5601 18.2425ZM24.5601 18.2425C24.5601 22.0409 25.9351 25.1175 29.3726 25.1175C32.8101 25.1175 34.1851 22.0409 34.1851 18.2425C34.1842 14.5662 32.9557 10.9956 30.6944 8.09712C28.4332 5.19863 25.2687 3.13831 21.7032 2.24307C18.1376 1.34784 14.3752 1.66897 11.013 3.15551C7.65075 4.64205 4.88124 7.20886 3.1439 10.4486C1.40657 13.6884 0.800936 17.4156 1.42309 21.0388C2.04525 24.662 3.85957 27.9736 6.57816 30.4482C9.29675 32.9229 12.7639 34.4187 16.4294 34.6985C20.095 34.9782 23.749 34.0258 26.8116 31.9924M24.5601 18.2425V11.3675" stroke="#0152A8" stroke-width="2" stroke-linecap="round" stroke-linejoin="round"/>
</svg>
