<svg width="19" height="14" viewBox="0 0 19 14" fill="none" xmlns="http://www.w3.org/2000/svg">
<path d="M16.0119 0.250916H2.84406C2.26219 0.251519 1.70434 0.475927 1.2929 0.874899C0.881457 1.27387 0.650036 1.81482 0.649414 2.37905V11.4996C0.650036 12.0639 0.881457 12.6048 1.2929 13.0038C1.70434 13.4028 2.26219 13.6272 2.84406 13.6278H16.0119C16.5938 13.6272 17.1516 13.4028 17.5631 13.0038C17.9745 12.6048 18.2059 12.0639 18.2065 11.4996V2.37905C18.2059 1.81482 17.9745 1.27387 17.5631 0.874899C17.1516 0.475927 16.5938 0.251519 16.0119 0.250916ZM15.4562 3.77108L9.81283 8.02736C9.70278 8.11031 9.56737 8.15535 9.42798 8.15535C9.28859 8.15535 9.15318 8.11031 9.04313 8.02736L3.39977 3.77108C3.33347 3.72253 3.27777 3.66168 3.23593 3.59207C3.19409 3.52247 3.16693 3.44549 3.15603 3.36562C3.14513 3.28575 3.15071 3.20457 3.17244 3.12681C3.19418 3.04904 3.23163 2.97624 3.28263 2.91264C3.33363 2.84903 3.39716 2.79589 3.46952 2.7563C3.54188 2.71671 3.62164 2.69145 3.70415 2.68201C3.78667 2.67257 3.87029 2.67912 3.95017 2.70129C4.03005 2.72345 4.10459 2.7608 4.16946 2.81114L9.42798 6.77707L14.6865 2.81114C14.818 2.71485 14.9833 2.67262 15.1466 2.69358C15.31 2.71454 15.4583 2.797 15.5594 2.92314C15.6605 3.04928 15.7064 3.20895 15.6871 3.36763C15.6678 3.52631 15.5848 3.67124 15.4562 3.77108Z" fill="#0152A8"/>
</svg>
