<svg width="26" height="24" viewBox="0 0 26 24" fill="none" xmlns="http://www.w3.org/2000/svg">
<path d="M12.0209 1.6086C12.3202 0.687287 13.6236 0.687289 13.923 1.6086L16.0814 8.25157C16.2153 8.66359 16.5992 8.94255 17.0325 8.94255L24.0173 8.94255C24.986 8.94255 25.3888 10.1822 24.6051 10.7516L18.9542 14.8571C18.6038 15.1118 18.4571 15.5632 18.591 15.9752L20.7494 22.6181C21.0488 23.5395 19.9943 24.3056 19.2106 23.7362L13.5597 19.6306C13.2092 19.376 12.7346 19.376 12.3841 19.6306L6.7333 23.7362C5.94958 24.3056 4.8951 23.5395 5.19446 22.6181L7.35289 15.9752C7.48676 15.5632 7.3401 15.1118 6.98962 14.8571L1.33877 10.7516C0.555056 10.1822 0.957833 8.94255 1.92656 8.94255L8.91138 8.94255C9.34461 8.94255 9.72857 8.66359 9.86244 8.25156L12.0209 1.6086Z" fill="#FBB837"/>
</svg>
